:SAMPLES-PER-SECOND 30
:FULLY-SPECIFIED
:DEGREES
1015
root  -9.76992 33.4097 0.798023 -23.8406 -86.9917 23.3323
RightUpLeg  -44.3619 -11.7055 -4.83399
RightLeg  58.0137 2.43321 3.73656
RightFoot  -13.0495 -0.0735038 0.976835
RightToes  7.56698e-010 0 -3.6325e-017
Spine  38.0291 -5.97254 -0.0921678
Spine1  -4.92234 -6.54511 2.57503
HEad  -38.3508 13.1805 -26.7574
LeftShoulder1  0.835258 -5.3072 -1.17992
LeftArm  -40.4892 -76.1487 -19.1638
LeftForeArm  10.4464 -68.2184 -29.1535
LeftHand  -0.214466 9.7342 -4.10759
RightShoulder  0.619105 -0.677809 15.2358
RightArm  -67.7887 -0.735882 21.2691
RightForeArm  84.7715 52.4023 162.285
RightHand  -3.51912 19.8612 -16.4326
LeftUpLeg  -20.0963 4.38701 12.5472
LeftLeg  68.3742 -1.71598 -3.99835
LeftFoot  -27.034 -1.58519 -12.5568
LeftToes  -2.88401e-009 5.30678e-011 -1.08654e-010
1016
root  -10.5729 33.7088 0.398904 -34.5095 -86.8379 33.9703
RightUpLeg  -42.6747 -11.5106 -4.88225
RightLeg  57.9863 2.34275 3.57526
RightFoot  -14.5754 -0.083977 0.506129
RightToes  7.56698e-010 0 -3.6325e-017
Spine  37.7747 -6.0012 -0.0872787
Spine1  -5.3364 -6.53555 2.51483
HEad  -39.1928 13.6696 -26.763
LeftShoulder1  0.862245 -5.43465 -1.37138
LeftArm  -40.6221 -76.2666 -18.7961
LeftForeArm  10.3285 -67.8394 -28.4895
LeftHand  -0.236604 9.48595 -4.97195
RightShoulder  0.621096 -0.665686 15.2128
RightArm  -67.8422 -0.711762 20.8843
RightForeArm  85.2295 52.7419 162.091
RightHand  -3.22182 18.9201 -15.671
LeftUpLeg  -20.9316 5.23171 12.6214
LeftLeg  70.2265 -1.23743 -2.95961
LeftFoot  -18.7016 -0.544021 -9.60081
LeftToes  -2.88401e-009 5.30678e-011 -1.08654e-010
1017
root  -11.3791 34.1347 0.0752901 -44.5589 -86.4918 43.9244
RightUpLeg  -40.3868 -11.2323 -5.27692
RightLeg  57.1158 2.34469 3.45365
RightFoot  -15.7665 -0.0925527 0.362783
RightToes  7.56698e-010 0 -3.6325e-017
Spine  37.4469 -6.19055 -0.195779
Spine1  -5.72315 -6.72109 2.28166
HEad  -39.9322 13.9516 -27.2483
LeftShoulder1  0.839874 -5.35125 -1.18643
LeftArm  -39.9833 -76.1861 -19.9584
LeftForeArm  10.2741 -67.7362 -28.3192
LeftHand  -0.214745 9.49901 -4.36801
RightShoulder  0.598706 -0.784467 15.3657
RightArm  -67.4649 -0.379132 20.0463
RightForeArm  84.6304 53.0319 161.907
RightHand  -3.46513 20.5063 -15.8039
LeftUpLeg  -21.6933 6.36826 11.9787
LeftLeg  71.3379 -0.454073 -0.599853
LeftFoot  -10.9831 0.108146 -5.33224
LeftToes  -2.88401e-009 5.30678e-011 -1.08654e-010
1018
root  -12.1422 34.6188 -0.196685 -45.4571 -86.1664 44.8358
RightUpLeg  -37.9247 -11.1367 -5.32497
RightLeg  55.5637 2.32384 3.2177
RightFoot  -16.4874 -0.0933803 0.40201
RightToes  7.56698e-010 0 -3.6325e-017
Spine  36.8476 -6.31112 -0.173332
Spine1  -6.12753 -6.86056 2.57284
HEad  -40.0029 13.7137 -27.9522
LeftShoulder1  0.886649 -5.49058 -1.61397
LeftArm  -40.3099 -76.5675 -19.5268
LeftForeArm  9.77661 -67.6342 -28.2159
LeftHand  -0.199125 9.47659 -3.97756
RightShoulder  0.61553 -0.693248 15.2326
RightArm  -67.726 -0.532166 19.279
RightForeArm  84.2935 53.385 161.687
RightHand  -3.35362 20.1301 -15.5322
LeftUpLeg  -22.2965 7.35125 11.537
LeftLeg  71.7581 -0.591518 -1.07925
LeftFoot  -9.24348 0.148798 -5.10861
LeftToes  -2.88401e-009 5.30678e-011 -1.08654e-010
1019
root  -12.9049 35.1742 -0.438114 -46.5185 -85.8641 46.0403
RightUpLeg  -35.2453 -10.7759 -5.43115
RightLeg  53.2751 2.20398 2.77113
RightFoot  -16.938 -0.0837538 0.631952
RightToes  7.56698e-010 0 -3.6325e-017
Spine  36.346 -6.41148 -0.36227
Spine1  -6.78262 -7.02059 2.63696
HEad  -40.4309 13.8291 -28.1516
LeftShoulder1  0.853071 -5.55571 -1.11024
LeftArm  -41.1161 -76.4177 -19.3885
LeftForeArm  9.77507 -67.7905 -28.4863
LeftHand  -0.202594 9.72256 -3.80785
RightShoulder  0.607612 -0.762441 15.5265
RightArm  -68.1436 -0.559702 18.3792
RightForeArm  83.8999 53.5777 161.562
RightHand  -3.22724 20.0812 -14.9962
LeftUpLeg  -23.0602 8.42814 10.8287
LeftLeg  71.7405 -1.4863 -4.1301
LeftFoot  -9.98602 0.139806 -6.69647
LeftToes  -2.88401e-009 5.30678e-011 -1.08654e-010
1020
root  -13.627 35.7368 -0.626954 -46.8215 -85.668 46.434
RightUpLeg  -32.4159 -10.4852 -5.49178
RightLeg  50.5531 2.19853 2.49396
RightFoot  -17.193 -0.0758926 0.792138
RightToes  7.56698e-010 0 -3.6325e-017
Spine  35.8816 -6.37296 -0.617176
Spine1  -7.42576 -7.1177 3.08911
HEad  -40.0328 12.9205 -27.9698
LeftShoulder1  0.85824 -5.5175 -1.22308
LeftArm  -41.648 -76.8098 -19.0235
LeftForeArm  9.72168 -67.813 -28.5338
LeftHand  -0.188707 9.57229 -3.62276
RightShoulder  0.616248 -0.719332 15.4936
RightArm  -68.7111 -0.890316 17.7715
RightForeArm  83.7686 53.6129 161.538
RightHand  -3.41904 20.8257 -15.4131
LeftUpLeg  -24.0974 10.036 9.91428
LeftLeg  71.3444 -1.6652 -4.63115
LeftFoot  -9.92383 0.144921 -6.9178
LeftToes  -2.88401e-009 5.30678e-011 -1.08654e-010
1021
root  -14.3194 36.3139 -0.794402 -44.3609 -85.5358 44.112
RightUpLeg  -29.5004 -10.6123 -5.31305
RightLeg  47.3882 2.28061 2.31425
RightFoot  -17.138 -0.0683311 0.941934
RightToes  7.56698e-010 0 -3.6325e-017
Spine  35.7312 -6.55631 -0.387332
Spine1  -8.57219 -7.18327 2.64964
HEad  -39.7723 12.4466 -27.1424
LeftShoulder1  0.806346 -5.64748 -0.420476
LeftArm  -42.0429 -76.9436 -19.3583
LeftForeArm  10.1082 -67.6997 -28.2804
LeftHand  -0.175781 8.82698 -4.0661
RightShoulder  0.588163 -0.904399 16.0439
RightArm  -69.2527 -1.65319 17.4916
RightForeArm  84.4536 53.4118 161.673
RightHand  -3.05015 20.5031 -13.9934
LeftUpLeg  -25.4739 11.548 9.00592
LeftLeg  70.1803 -1.38829 -3.44026
LeftFoot  -10.0906 0.138924 -7.18583
LeftToes  -2.88401e-009 5.30678e-011 -1.08654e-010
1022
root  -14.9832 36.8598 -0.939172 -41.9269 -85.3861 41.987
RightUpLeg  -26.843 -10.9631 -5.14232
RightLeg  44.1392 2.48954 2.26868
RightFoot  -16.8599 -0.0638073 1.04282
RightToes  7.56698e-010 0 -3.6325e-017
Spine  35.1555 -6.5113 -0.652405
Spine1  -9.0927 -7.27596 2.88179
HEad  -39.6833 12.1444 -27.167
LeftShoulder1  0.77124 -5.60992 -0.0258348
LeftArm  -42.8797 -77.1549 -19.1621
LeftForeArm  10.188 -67.7953 -28.4348
LeftHand  -0.179526 9.18213 -3.74648
RightShoulder  0.578089 -0.97282 16.2908
RightArm  -69.4272 -1.88556 17.2931
RightForeArm  84.0374 53.2654 161.757
RightHand  -3.40722 20.4413 -15.5833
LeftUpLeg  -27.2441 13.2233 7.99258
LeftLeg  68.1426 -1.31765 -2.86124
LeftFoot  -10.0265 0.140336 -6.99335
LeftToes  -2.88401e-009 5.30678e-011 -1.08654e-010
1023
root  -15.6215 37.3215 -1.05478 -41.7137 -85.3745 41.9984
RightUpLeg  -24.3455 -11.1843 -5.07638
RightLeg  41.1687 2.8199 2.34835
RightFoot  -16.5688 -0.0625099 1.08698
RightToes  7.56698e-010 0 -3.6325e-017
Spine  34.841 -6.33653 -0.863416
Spine1  -9.78779 -7.17862 2.81278
HEad  -39.3619 12.5304 -27.2624
LeftShoulder1  0.756382 -5.73212 0.286231
LeftArm  -43.0432 -77.4107 -19.4904
LeftForeArm  10.1053 -67.66 -28.2131
LeftHand  -0.173757 9.50686 -3.29269
RightShoulder  0.532805 -1.2133 16.7781
RightArm  -69.683 -2.08969 16.9798
RightForeArm  83.8437 53.004 161.914
RightHand  -3.69754 20.3134 -16.9414
LeftUpLeg  -28.9275 14.8762 6.94733
LeftLeg  65.007 -1.37645 -2.54676
LeftFoot  -10.0107 0.145327 -7.345
LeftToes  -2.88401e-009 5.30678e-011 -1.08654e-010
1024
root  -16.2272 37.6699 -1.1364 -39.3303 -85.2915 39.7869
RightUpLeg  -22.1456 -11.54 -4.96306
RightLeg  38.7239 2.97878 2.27894
RightFoot  -16.5928 -0.054907 1.25153
RightToes  7.56698e-010 0 -3.6325e-017
Spine  34.5492 -6.19767 -1.01484
Spine1  -10.1475 -7.1235 2.78362
HEad  -38.773 11.9562 -26.813
LeftShoulder1  0.717017 -5.74959 0.787274
LeftArm  -42.5745 -77.6154 -20.454
LeftForeArm  10.3195 -67.847 -28.5056
LeftHand  -0.179197 10.2707 -2.75829
RightShoulder  0.470308 -1.50348 17.0814
RightArm  -70.0815 -2.29614 16.8176
RightForeArm  84.2751 52.9499 161.952
RightHand  -3.43036 19.7028 -16.1666
LeftUpLeg  -30.674 15.8598 6.03255
LeftLeg  61.0134 -1.70112 -2.73734
LeftFoot  -10.0034 0.151333 -7.82109
LeftToes  -2.88401e-009 5.30678e-011 -1.08654e-010
1025
root  -16.8125 37.928 -1.17846 -40.4326 -85.2465 40.9827
RightUpLeg  -20.2594 -11.8011 -5.09456
RightLeg  36.8873 3.17739 2.28855
RightFoot  -16.7072 -0.0634551 1.05995
RightToes  7.56698e-010 0 -3.6325e-017
Spine  34.2702 -6.11678 -1.17119
Spine1  -10.1172 -7.06618 2.03743
HEad  -38.374 11.4937 -26.2518
LeftShoulder1  0.654723 -5.80336 1.60319
LeftArm  -42.5913 -77.8546 -21.0688
LeftForeArm  10.5537 -67.6158 -28.0712
LeftHand  -0.135607 9.13867 -2.53956
RightShoulder  0.490612 -1.4319 17.2612
RightArm  -70.7609 -3.05475 17.1143
RightForeArm  83.9284 52.7087 162.092
RightHand  -3.27508 21.6468 -14.346
LeftUpLeg  -32.1891 16.6923 5.01773
LeftLeg  56.0532 -2.13814 -2.90786
LeftFoot  -10.231 0.139951 -8.16515
LeftToes  -2.88401e-009 5.30678e-011 -1.08654e-010
1026
root  -17.3746 38.0476 -1.17938 -40.335 -85.3375 40.7967
RightUpLeg  -18.681 -11.7788 -5.13128
RightLeg  35.9568 3.13377 2.17504
RightFoot  -17.2623 -0.061339 1.06884
RightToes  7.56698e-010 0 -3.6325e-017
Spine  34.5898 -5.92205 -1.39334
Spine1  -10.5277 -6.97456 2.04706
HEad  -38.2971 11.7572 -26.4197
LeftShoulder1  0.648098 -5.7807 1.66446
LeftArm  -43.353 -77.8489 -20.6384
LeftForeArm  10.9051 -67.5369 -27.8865
LeftHand  -0.169933 8.91855 -3.76327
RightShoulder  0.473785 -1.49399 17.1609
RightArm  -70.5968 -2.91477 17.0888
RightForeArm  83.8618 52.6886 162.103
RightHand  -3.79916 21.6518 -16.5598
LeftUpLeg  -33.5013 17.1432 4.2791
LeftLeg  50.6163 -2.40146 -2.6958
LeftFoot  -10.617 0.118984 -8.73305
LeftToes  -2.88401e-009 5.30678e-011 -1.08654e-010
